# xmcd
#
# Track frame offsets:
#	150
#	17150
#	38722
#	61164
#	81807
#	103926
#	122827
#	147482
#	172912
#	191555
#	213285
#	235417
#	263052
#
# Disc length: 3983 seconds
#
# Revision: 2
# Processed by: cddbd v1.5.1PL0 Copyright (c) Steve Scherf et al.
# Submitted via: EasyCDDAExtractor 8.2.1.1
#
DISCID=b30f8d0d
DTITLE=GreeneJackie - Sweet Somewhere Bound
DYEAR=2005
DGENRE=Blues
TTITLE0=About Cell Block #9
TTITLE1=Honey I Been Thinking About You
TTITLE2=Sweet Somewhere Bound
TTITLE3=Thing Called Rain, A
TTITLE4=Alice on the Rooftop
TTITLE5=Seven Jealous Sisters
TTITLE6=Emily's In Heaven
TTITLE7=Miss Madeline (3 Ways To Love Her)
TTITLE8=I Don't Care About My Baby
TTITLE9=Write a Letter Home
TTITLE10=Sad To Say Goodbye
TTITLE11=Everything To Me
TTITLE12=Don't Mind Me, I'm Only Dying Slow
EXTD=
EXTT0=
EXTT1=
EXTT2=
EXTT3=
EXTT4=
EXTT5=
EXTT6=
EXTT7=
EXTT8=
EXTT9=
EXTT10=
EXTT11=
EXTT12=
PLAYORDER=
